<mxfile host="app.diagrams.net" agent="Mozilla/5.0 (Macintosh; Intel Mac OS X 10_15_7) AppleWebKit/537.36 (KHTML, like Gecko) Chrome/129.0.0.0 Safari/537.36" version="24.7.16">
  <diagram name="第 1 页" id="zHYXXmrncu3CxzG8PKFW">
    <mxGraphModel dx="928" dy="625" grid="0" gridSize="10" guides="1" tooltips="1" connect="1" arrows="1" fold="1" page="0" pageScale="1" pageWidth="827" pageHeight="1169" math="0" shadow="0">
      <root>
        <mxCell id="0" />
        <mxCell id="1" parent="0" />
        <mxCell id="wM4fkC3PLYowAYGgE8fv-1" value="" style="rounded=1;whiteSpace=wrap;html=1;" vertex="1" parent="1">
          <mxGeometry x="126" y="120" width="296" height="424" as="geometry" />
        </mxCell>
        <mxCell id="wM4fkC3PLYowAYGgE8fv-2" value="" style="rounded=1;whiteSpace=wrap;html=1;" vertex="1" parent="1">
          <mxGeometry x="151.5" y="263" width="245" height="151" as="geometry" />
        </mxCell>
        <mxCell id="wM4fkC3PLYowAYGgE8fv-3" value="分布式程序" style="text;html=1;align=center;verticalAlign=middle;whiteSpace=wrap;rounded=0;" vertex="1" parent="1">
          <mxGeometry x="242" y="122" width="64" height="30" as="geometry" />
        </mxCell>
        <mxCell id="wM4fkC3PLYowAYGgE8fv-4" value="课题三" style="text;html=1;align=center;verticalAlign=middle;whiteSpace=wrap;rounded=0;" vertex="1" parent="1">
          <mxGeometry x="244" y="266" width="60" height="30" as="geometry" />
        </mxCell>
        <mxCell id="wM4fkC3PLYowAYGgE8fv-5" value="input data structure" style="rounded=1;whiteSpace=wrap;html=1;fillColor=#f8cecc;strokeColor=#b85450;" vertex="1" parent="1">
          <mxGeometry x="150" y="247" width="247" height="14" as="geometry" />
        </mxCell>
        <mxCell id="wM4fkC3PLYowAYGgE8fv-7" value="output data structure" style="rounded=1;whiteSpace=wrap;html=1;fillColor=#f8cecc;strokeColor=#b85450;" vertex="1" parent="1">
          <mxGeometry x="151.5" y="416" width="247" height="14" as="geometry" />
        </mxCell>
      </root>
    </mxGraphModel>
  </diagram>
</mxfile>
